<svg data-name="Layer 1" xmlns="http://www.w3.org/2000/svg" viewBox="0 0 84.35 87.53"><path d="M76.36 10C69.61 2.29 57.53 0 45.45 0s-21.7.63-27.23 2.71C7.57 6.88 0 15.42 0 30.63c0 9 .06 22.14 2.25 29 3.07 9.59 13.51 16 20.88 16h1l2 11.88L39.1 76.27c12.9 0 28.87-1.46 36-8.54s9.21-17.3 9.21-29.59S83.12 17.71 76.36 10zM61.11 54.75A12.16 12.16 0 0156 60.54a12.28 12.28 0 01-2.23.72c-.87-.27-1.7-.45-2.47-.78-8-3.37-15.34-7.73-21.17-14.4A56.07 56.07 0 0122 33.47c-1-2.15-1.91-4.38-2.81-6.6-.81-2 .39-4.12 1.65-5.64a13.06 13.06 0 014.36-3.34 2.77 2.77 0 013.5.85 45.92 45.92 0 015.42 7.72 3.71 3.71 0 01-1 5c-.41.28-.78.62-1.17.94a3.9 3.9 0 00-.88.94 2.62 2.62 0 00-.17 2.27c2.1 5.79 5.56 10.31 11.31 12.75a5.7 5.7 0 002.91.72c1.78-.21 2.35-2.19 3.6-3.23a3.34 3.34 0 014.08-.18c1.31.84 2.58 1.75 3.84 2.67a43.83 43.83 0 013.62 2.8 3 3 0 01.85 3.61zm-10.32-19h-.06a1.29 1.29 0 01-1.37-1.29 13.52 13.52 0 00-.25-1.7A4.8 4.8 0 0047.38 30a4.51 4.51 0 00-1.38-.66c-.67-.19-1.34-.14-2-.34a1.21 1.21 0 01-1-1.41 1.26 1.26 0 011.33-1c4.05.3 6.95 2.43 7.36 7.29a3.41 3.41 0 010 1 1 1 0 01-.89.86.14.14 0 11-.01.05zm-2.52-11.06a14.09 14.09 0 00-4-1.24c-.6-.1-1.2-.16-1.8-.25a1.15 1.15 0 01-1.08-1.3 1.13 1.13 0 011.25-1.13 16.18 16.18 0 016.85 1.82 14.1 14.1 0 017.54 11c0 .22.09.44.1.67 0 .55.07 1.11.11 1.84a5 5 0 01-.1.74 1.18 1.18 0 01-2.23.12 3.28 3.28 0 01-.13-1 13.07 13.07 0 00-1.6-6.46 11.91 11.91 0 00-4.91-4.81zm13.4 15.23a1.35 1.35 0 01-1.27-1.47c-.11-1.51-.18-3-.39-4.54A18.86 18.86 0 0045 18c-1.17-.21-2.36-.27-3.54-.39-.75-.08-1.72-.13-1.89-1.07a1.29 1.29 0 011.26-1.46h.61c10.45.3-.2 0 0 0A21.35 21.35 0 0162.29 33c.31 1.79.43 3.63.56 5.44a1.27 1.27 0 01-1.18 1.47z" fill="#7341a0"/></svg>