<svg data-name="Layer 1" xmlns="http://www.w3.org/2000/svg" viewBox="0 0 180.47 248.57"><path d="M85.66 222.31v-.06c0-.29-.08-.77-.14-1.27a16.37 16.37 0 00-.6-2.73c-2.12-6.67-7.78-11-14.42-11a15.86 15.86 0 00-2 .13A15.38 15.38 0 0055.28 225a15.05 15.05 0 0015.18 13.38 17.17 17.17 0 002-.13A15.51 15.51 0 0083 232.61a.91.91 0 00.2-.67.78.78 0 00-.34-.53c-.46-.32-2.09-1.12-3-1.55l-.59-.28a1.34 1.34 0 00-.63-.2.82.82 0 00-.62.35 9.81 9.81 0 01-6.25 3.42 11.46 11.46 0 01-1.32.08c-4.14 0-8.32-2.78-9.53-6.58v-.1h.09a12 12 0 015-1h1.07c.83.07 1.66.17 2.53.28a37.88 37.88 0 005.23.43 25.49 25.49 0 003.59-.25c4.74-.91 6.61-2.25 6.63-2.26a1.25 1.25 0 00.61-1.44m-5.36-1.94a18.77 18.77 0 01-3.18.64 17.56 17.56 0 01-2.16.12c-1.38 0-2.88-.11-4.33-.23h-.07c-1.34-.1-2.62-.2-3.83-.2a18.71 18.71 0 00-6.52 1.15v-.18a10.48 10.48 0 018.94-9.1 11.2 11.2 0 011.31-.08 10.76 10.76 0 019.89 7.73v.12zM159.9 209a.72.72 0 00-.72-.71h-3.93a.72.72 0 00-.71.71v27.9a.72.72 0 00.71.72h3.93a.72.72 0 00.72-.72V209zm-2.68-10.65a3.54 3.54 0 103.54 3.54 3.55 3.55 0 00-3.54-3.54m-52.09 40.03h.75a14.71 14.71 0 0010.55-4.38 15.84 15.84 0 00-11.07-26.76 15.23 15.23 0 00-14.83 11.55 36.22 36.22 0 00-.63 7.21v21.88a.73.73 0 00.72.72h3.89a.73.73 0 00.73-.72v-13.8l.21.21a15.48 15.48 0 009.67 4.12m.17-25.81c5.56 0 9.91 4.58 9.91 10.42s-4.13 10.31-9.61 10.31a10.32 10.32 0 01-7.21-2.79 10 10 0 01-3-7.34c0-5.84 4.45-10.6 9.92-10.6m-70.09 25.78h.74A14.72 14.72 0 0046.52 234a15.84 15.84 0 00-11.08-26.76 15.22 15.22 0 00-14.83 11.55A35 35 0 0020 226v21.88a.72.72 0 00.72.72h3.91a.73.73 0 00.72-.72v-13.8l.2.21a15.49 15.49 0 009.69 4.12m.17-25.81c5.55 0 9.91 4.58 9.91 10.42s-4.13 10.31-9.61 10.31a10.29 10.29 0 01-7.21-2.79 10 10 0 01-3-7.34c0-5.84 4.45-10.6 9.93-10.6m89.13 20.89a16.82 16.82 0 0011.9 4.87h.15c8.29-.05 12-4.59 12-9.06 0-6.17-5.84-7.86-7.62-8.23l-1.77-.35c-1.45-.28-2.94-.57-4.31-.95-.95-.25-4.06-1.29-4.06-3.62 0-2.56 2.84-3.94 5.51-3.94a9.46 9.46 0 016.51 2.25 1.27 1.27 0 00.77.32 1.15 1.15 0 00.71-.26 30.09 30.09 0 002.65-2.32.84.84 0 00.26-.63 1.1 1.1 0 00-.4-.72 15.73 15.73 0 00-10.62-3.59c-6.23 0-10.92 4-10.92 9.29 0 4.2 3.45 7.18 9.71 8.41l3.91.75c2.58.48 4 1.84 4 3.75s-2.33 3.8-6.09 3.8a11.76 11.76 0 01-8-3.26 1 1 0 00-.61-.32 1 1 0 00-.57.24c-.24.19-2.85 2.26-3.13 2.55a.57.57 0 00-.18.44.92.92 0 00.3.6m40.81-1.64a3.24 3.24 0 11-3.2 3.26 3.23 3.23 0 013.2-3.26m0 5.92a2.68 2.68 0 10-2.64-2.67 2.65 2.65 0 002.64 2.67m.5-2.21a1 1 0 00.7-1 1 1 0 00-1-1.07h-1.26v3.25h.59v-1.12h.21l.81 1.12h.77zm-.34-1.45a.44.44 0 010 .87H165v-.87h.62z" fill="#0069aa"/><path d="M154 154a90.23 90.23 0 110-127.61A90.23 90.23 0 01154 154" fill="#fff"/><path d="M160.48 44.7A58.4 58.4 0 01139 109.26c-25.28 18.62-62.12 18.64-113 34.67A83.71 83.71 0 00160.48 44.7" fill="#0069aa"/><path d="M140.45 23.23a83.73 83.73 0 00-117.6 116.71 173.82 173.82 0 00117.6-116.71" fill="#ef3e42"/></svg>