<svg version="1.0" xmlns="http://www.w3.org/2000/svg" width="1466.667" height="1466.667" viewBox="0 0 1100 1100"><path d="M523.8 256.5c-.2.2-3.7.6-8 .9-19.5 1.5-48.6 7.5-65.8 13.6-3 1-14.7 5.4-17.5 6.5-1.1.5-2.2.9-2.5 1-9.4 3.2-33.4 15.9-48 25.4-23.2 15-49.6 38.4-64.8 57.5-3.1 3.9-6 7.3-6.3 7.6-.3.3-4 5.2-8.1 11-16.9 23.8-30.8 51.2-39.4 77.7-4.2 12.9-5.6 18-6.7 23.3-.3 1.4-1.1 4.7-1.7 7.5-.7 2.7-1.4 6.3-1.7 8-.2 1.6-.6 4.1-.9 5.5-.2 1.4-.7 4.3-1 6.5-.2 2.2-.7 5-.9 6.1-2.4 11.3-2.4 58.7-.1 71.4.3 1.4.7 4.3 1 6.5 1 7.6 1.5 10.7 2 12.4.3.9.8 2.9 1.1 4.6.8 4.9 1.3 7.1 2.3 10.9.6 2 .9 3.6.7 3.6-.2 0 .2 1.2 1 2.7.8 1.5 1.2 3 .9 3.5-.3.5 0 1.5.6 2.3.7.8 1 1.5.7 1.5-.7 0 4.1 14.2 9.3 27.5 1.3 3.5 4.7 10.7 9.5 20.5 16.7 33.9 41.4 65.8 70 90.5 3.8 3.3 7.6 6.5 8.3 7.2 6.9 6.5 32.6 23.3 48.3 31.5 15.1 8 46.3 20.6 55.4 22.4.6.1 4.7 1.2 9.3 2.3 8.1 2.1 15.6 3.7 21.7 4.7 1.7.3 4.1.7 5.5 1 1.4.3 4.3.7 6.5.9 2.2.2 6.7.7 10 1.1 7.9 1 45.9 1.1 55.9.1 20.9-2 50.5-8.2 64.6-13.4.8-.4 2.2-.7 3-.9 1.3-.3 5.1-1.8 12.7-5 1.7-.8 3.4-1.4 3.7-1.4 1.9 0 29.3-13.6 38.5-19.2 3.4-2.1 6.7-3.8 7.2-3.8s.9-.4.9-.8 1.5-1.6 3.3-2.6c5.2-3.1 18.6-12.9 27.2-20.1 21-17.5 44.8-44 57-63.6.6-.9 2.2-3.4 3.6-5.5 5.4-8.1 14.9-26.3 22.2-42.5 2.3-5.1 11.4-31 12.3-35.2.2-.9.6-2.5.9-3.5 1-3.6 5.5-24.9 6-28.7.3-2.2.8-5.1 1-6.5.5-3.2 1.5-11.3 2.1-18.1.6-7.4.6-37-.1-44.4-1.7-19.3-3-27.3-8-50-.3-1.1-1.6-5.8-3-10.5-1.5-4.7-2.8-9.2-3-10-.5-1.8-5.2-14.7-6.4-17.5-.5-1.1-1.7-4-2.7-6.4-9.4-22.1-29-54.2-42.9-70.4-.5-.7-2.5-3-4.4-5.2-20.6-24.4-51.6-49.6-80.1-65.3-17.9-9.8-45.6-21.6-58-24.7-.8-.2-6.9-1.8-13.5-3.5-13.8-3.5-14.6-3.7-33-6.4-2.2-.4-6.2-.9-9-1.2-5.3-.6-48.2-1.4-48.7-.9z"/></svg>