<svg version="1.0" xmlns="http://www.w3.org/2000/svg" width="1706.667" height="1649.333" viewBox="0 0 1280 1237"><path d="M610.5 1.2c-4.4 1.6-11.1 6.4-13.4 9.7-1.1 1.6-12 26-24.2 54.2-12.2 28.3-36.1 83.8-53.1 123.4-17.1 39.6-37.2 86.4-44.8 104-7.6 17.6-18.8 43.7-25 58-6.1 14.3-11.5 26.4-12 26.9s-9.8 1.7-20.7 2.7c-23.9 2.1-130.6 11.9-256.3 23.4-50.9 4.7-97.7 9-104 9.6-14.4 1.3-17.6 2.1-23.6 6.2-3.6 2.4-5.7 4.8-8.2 9.7-3.2 6.1-3.4 7-3 14 .3 5.6 1.1 8.8 2.9 12 1.8 3.3 38.7 36.3 151.5 135.7L325.8 722l-2 8.8c-1 4.8-6.4 28.6-11.8 53-5.5 24.3-14.5 64.3-20.1 89-5.5 24.6-19.7 87.4-31.5 139.7-23.2 102.5-23.3 102.9-19 111.7 2.4 4.9 7.8 10.3 12.9 13 6.2 3.1 16.1 3.6 21.9 1 4.6-2 59.8-34.7 233.3-138.2 52.3-31.1 98.2-58.6 102.1-60.9l7.2-4.2 105.8 62.9c176.9 105.1 231.7 137.4 236.3 139.5 5.3 2.3 16.7 2 21.8-.7 8.5-4.4 14.9-13.4 15.9-22.4.6-4.8.4-5.3-32.1-148.7-4.6-20.4-12.9-57.3-18.5-82-9.7-43.2-14.7-65.2-29.6-130.9-4.3-19.2-6.4-30.3-5.8-31.1.5-.7 65.3-57.9 143.9-127 78.7-69.2 145.6-128.3 148.8-131.4 7.6-7.4 10.1-12.7 10.1-21.1-.1-12.5-7.7-23.3-18.8-26.5-2.8-.8-49.3-5.5-104.1-10.5-241.3-22.1-292.7-26.8-293.1-27.3-.5-.4-4.1-8.8-48.6-112.2-15.4-35.8-42-97.4-59-137-17.1-39.6-35.1-81.7-40.2-93.5-8.2-19.3-9.6-22-14.2-26.7-3.8-3.8-6.5-5.5-10.4-6.7-6.1-1.8-12.1-1.9-16.5-.4z" fill="#00bcd4"/></svg>