<svg width="16" height="11" viewBox="0 0 16 11" fill="none" xmlns="http://www.w3.org/2000/svg">
<path d="M8 7.25323C9.10457 7.25323 10 6.3578 10 5.25323C10 4.14867 9.10457 3.25323 8 3.25323C6.89543 3.25323 6 4.14867 6 5.25323C6 6.3578 6.89543 7.25323 8 7.25323Z" fill="#014a9b"/>
<path d="M8 0C6.28898 0 4.61625 0.506463 3.1926 1.45556C1.76895 2.40467 0.658083 3.75393 0 5.33333C0.658083 6.91273 1.76895 8.262 3.1926 9.2111C4.61625 10.1602 6.28898 10.6667 8 10.6667C9.71102 10.6667 11.3838 10.1602 12.8074 9.2111C14.2311 8.262 15.3419 6.91273 16 5.33333C15.3419 3.75393 14.2311 2.40467 12.8074 1.45556C11.3838 0.506463 9.71102 0 8 0V0ZM8 8.58667C7.34073 8.58667 6.69626 8.39117 6.1481 8.0249C5.59994 7.65863 5.17269 7.13803 4.9204 6.52894C4.66811 5.91986 4.6021 5.24964 4.73072 4.60303C4.85933 3.95643 5.1768 3.36249 5.64298 2.89631C6.10915 2.43014 6.7031 2.11267 7.3497 1.98405C7.9963 1.85543 8.66652 1.92144 9.27561 2.17374C9.8847 2.42603 10.4053 2.85327 10.7716 3.40143C11.1378 3.9496 11.3333 4.59406 11.3333 5.25333C11.3333 6.13739 10.9821 6.98523 10.357 7.61036C9.7319 8.23548 8.88406 8.58667 8 8.58667V8.58667Z" fill="#014a9b"/>
</svg>
